<?xml version="1.0" encoding="UTF-8"?>
<svg version="1.1" xmlns="http://www.w3.org/2000/svg" width="364" height="386">
<path d="M0 0 C9.57 0 19.14 0 29 0 C29 30.03 29 60.06 29 91 C33.95 91 38.9 91 44 91 C44 76.15 44 61.3 44 46 C54.56 46 65.12 46 76 46 C76 60.85 76 75.7 76 91 C80.29 91 84.58 91 89 91 C89 76.15 89 61.3 89 46 C99.56 46 110.12 46 121 46 C121 60.85 121 75.7 121 91 C125.95 91 130.9 91 136 91 C136 76.15 136 61.3 136 46 C160.75 46 185.5 46 211 46 C211 60.85 211 75.7 211 91 C230.47 91 249.94 91 270 91 C270 86.05 270 81.1 270 76 C255.15 76 240.3 76 225 76 C225 66.1 225 56.2 225 46 C249.75 46 274.5 46 300 46 C300 70.75 300 95.5 300 121 C210.57 121 121.14 121 29 121 C29 135.85 29 150.7 29 166 C4.58 166 -19.84 166 -45 166 C-45 126.4 -45 86.8 -45 46 C-35.1 46 -25.2 46 -15 46 C-15 75.7 -15 105.4 -15 136 C-10.05 136 -5.1 136 0 136 C0 91.12 0 46.24 0 0 Z M166 76 C166 80.95 166 85.9 166 91 C170.95 91 175.9 91 181 91 C181 86.05 181 81.1 181 76 C176.05 76 171.1 76 166 76 Z " fill="#FFFFFF" transform="translate(45,180)"/>
<path d="M0 0 C10.56 0 21.12 0 32 0 C32 14.85 32 29.7 32 45 C36.95 45 41.9 45 47 45 C47 30.15 47 15.3 47 0 C71.75 0 96.5 0 122 0 C122 14.85 122 29.7 122 45 C141.47 45 160.94 45 181 45 C181 40.38 181 35.76 181 31 C166.15 31 151.3 31 136 31 C136 20.77 136 10.54 136 0 C160.75 0 185.5 0 211 0 C211 24.75 211 49.5 211 75 C151.93 75 92.86 75 32 75 C32 89.85 32 104.7 32 120 C6.59 120 -18.82 120 -45 120 C-45 110.1 -45 100.2 -45 90 C-30.15 90 -15.3 90 0 90 C0 60.3 0 30.6 0 0 Z M77 31 C77 35.62 77 40.24 77 45 C81.95 45 86.9 45 92 45 C92 40.38 92 35.76 92 31 C87.05 31 82.1 31 77 31 Z " fill="#FFFFFF" transform="translate(134,45)"/>
<path d="M0 0 C84.48 0 168.96 0 256 0 C256 10.56 256 21.12 256 32 C171.52 32 87.04 32 0 32 C0 21.44 0 10.88 0 0 Z " fill="#FFFFFF" transform="translate(89,180)"/>
<path d="M0 0 C9.9 0 19.8 0 30 0 C30 44.55 30 89.1 30 135 C44.52 135 59.04 135 74 135 C74 144.9 74 154.8 74 165 C59.48 165 44.96 165 30 165 C30 180.51 30 196.02 30 212 C20.1 212 10.2 212 0 212 C0 142.04 0 72.08 0 0 Z " fill="#FFFFFF" transform="translate(0,0)"/>
<path d="M0 0 C25.08 0 50.16 0 76 0 C76 24.75 76 49.5 76 75 C50.92 75 25.84 75 0 75 C0 50.25 0 25.5 0 0 Z M29 31 C29 35.62 29 40.24 29 45 C33.95 45 38.9 45 44 45 C44 40.38 44 35.76 44 31 C39.05 31 34.1 31 29 31 Z " fill="#FFFFFF" transform="translate(45,45)"/>
<path d="M0 0 C54.12 0 108.24 0 164 0 C164 10.23 164 20.46 164 31 C109.88 31 55.76 31 0 31 C0 20.77 0 10.54 0 0 Z " fill="#FFFFFF" transform="translate(181,0)"/>
<path d="M0 0 C54.12 0 108.24 0 164 0 C164 9.9 164 19.8 164 30 C109.88 30 55.76 30 0 30 C0 20.1 0 10.2 0 0 Z " fill="#FFFFFF" transform="translate(181,135)"/>
<path d="M0 0 C39.6 0 79.2 0 120 0 C120 9.9 120 19.8 120 30 C80.4 30 40.8 30 0 30 C0 20.1 0 10.2 0 0 Z " fill="#FFFFFF" transform="translate(181,316)"/>
<path d="M0 0 C10.56 0 21.12 0 32 0 C32 10.23 32 20.46 32 31 C21.44 31 10.88 31 0 31 C0 20.77 0 10.54 0 0 Z " fill="#FFFFFF" transform="translate(134,0)"/>
<path d="M0 0 C10.56 0 21.12 0 32 0 C32 10.23 32 20.46 32 31 C21.44 31 10.88 31 0 31 C0 20.77 0 10.54 0 0 Z " fill="#FFFFFF" transform="translate(89,0)"/>
<path d="M0 0 C10.56 0 21.12 0 32 0 C32 9.9 32 19.8 32 30 C21.44 30 10.88 30 0 30 C0 20.1 0 10.2 0 0 Z " fill="#FFFFFF" transform="translate(134,316)"/>
<path d="M0 0 C10.56 0 21.12 0 32 0 C32 9.9 32 19.8 32 30 C21.44 30 10.88 30 0 30 C0 20.1 0 10.2 0 0 Z " fill="#FFFFFF" transform="translate(89,316)"/>
<path d="M0 0 C9.9 0 19.8 0 30 0 C30 9.9 30 19.8 30 30 C20.1 30 10.2 30 0 30 C0 20.1 0 10.2 0 0 Z " fill="#FFFFFF" transform="translate(315,316)"/>
<path d="M0 0 C9.57 0 19.14 0 29 0 C29 10.23 29 20.46 29 31 C19.43 31 9.86 31 0 31 C0 20.77 0 10.54 0 0 Z " fill="#FFFFFF" transform="translate(45,0)"/>
<path d="M0 0 C1.98 0 3.96 0 6 0 C7.875 2.5 7.875 2.5 9 5 C9.37125 4.175 9.7425 3.35 10.125 2.5 C10.74375 1.675 11.3625 0.85 12 0 C13.98 0 15.96 0 18 0 C18 5.28 18 10.56 18 16 C16.02 16 14.04 16 12 16 C11.67 15.34 11.34 14.68 11 14 C9.68 14 8.36 14 7 14 C6.67 13.34 6.34 12.68 6 12 C5.67 13.32 5.34 14.64 5 16 C3.35 16 1.7 16 0 16 C0 10.72 0 5.44 0 0 Z " fill="#FFFFFF" transform="translate(267,364)"/>
<path d="M0 0 C1.98 0 3.96 0 6 0 C7.875 2 7.875 2 9 4 C9.66 2.68 10.32 1.36 11 0 C12.98 0 14.96 0 17 0 C17 5.28 17 10.56 17 16 C15.35 16 13.7 16 12 16 C11.67 15.01 11.34 14.02 11 13 C10.360625 13.185625 9.72125 13.37125 9.0625 13.5625 C8.381875 13.706875 7.70125 13.85125 7 14 C6.67 13.67 6.34 13.34 6 13 C5.67 13.99 5.34 14.98 5 16 C3.35 16 1.7 16 0 16 C0 10.72 0 5.44 0 0 Z " fill="#FFFFFF" transform="translate(73,364)"/>
<path d="M0 0 C1.65 0 3.3 0 5 0 C5 1.98 5 3.96 5 6 C6.65 6 8.3 6 10 6 C10 4.02 10 2.04 10 0 C11.65 0 13.3 0 15 0 C15 5.28 15 10.56 15 16 C13.35 16 11.7 16 10 16 C10 14.02 10 12.04 10 10 C8.35 10 6.7 10 5 10 C5 11.98 5 13.96 5 16 C3.35 16 1.7 16 0 16 C0 10.72 0 5.44 0 0 Z " fill="#FFFFFF" transform="translate(2,364)"/>
<path d="M0 0 C4.62 0 9.24 0 14 0 C12.86382265 5.68088674 11.71674706 6.90204811 8 11 C10.97 11.495 10.97 11.495 14 12 C14 13.32 14 14.64 14 16 C9.38 16 4.76 16 0 16 C1.13617735 10.31911326 2.28325294 9.09795189 6 5 C3.03 4.505 3.03 4.505 0 4 C0 2.68 0 1.36 0 0 Z " fill="#FFFFFF" transform="translate(111,364)"/>
<path d="M0 0 C1.65 0 3.3 0 5 0 C6.98 5.28 8.96 10.56 11 16 C9.02 16 7.04 16 5 16 C4.67 15.01 4.34 14.02 4 13 C2.68 13 1.36 13 0 13 C0 13.99 0 14.98 0 16 C-1.98 16 -3.96 16 -6 16 C-4.43551329 10.3856009 -2.83604813 5.13189662 0 0 Z M2 8 C1.67 8.66 1.34 9.32 1 10 C1.66 10 2.32 10 3 10 C2.67 9.34 2.34 8.68 2 8 Z " fill="#FFFFFF" transform="translate(237,364)"/>
<path d="M0 0 C1.98 0 3.96 0 6 0 C6.83719383 2.29032311 7.6698929 4.58210957 8.5 6.875 C8.73847656 7.52597656 8.97695313 8.17695313 9.22265625 8.84765625 C11 13.7734375 11 13.7734375 11 16 C9.02 16 7.04 16 5 16 C5 15.01 5 14.02 5 13 C3.68 13 2.36 13 1 13 C1 13.99 1 14.98 1 16 C-0.98 16 -2.96 16 -5 16 C-4.34309381 12.21760329 -3.279869 8.78158474 -1.9375 5.1875 C-1.57527344 4.21167969 -1.21304688 3.23585938 -0.83984375 2.23046875 C-0.42412109 1.12638672 -0.42412109 1.12638672 0 0 Z M2 8 C2 8.66 2 9.32 2 10 C2.66 10 3.32 10 4 10 C4 9.34 4 8.68 4 8 C3.34 8 2.68 8 2 8 Z " fill="#FFFFFF" transform="translate(42,364)"/>
<path d="M0 0 C1.65 0 3.3 0 5 0 C5.81604999 1.9151579 6.62770632 3.83218834 7.4375 5.75 C8.11619141 7.35101563 8.11619141 7.35101563 8.80859375 8.984375 C9.73979553 11.3413841 10.4784072 13.52992835 11 16 C9.02 16 7.04 16 5 16 C5 15.01 5 14.02 5 13 C3.68 13 2.36 13 1 13 C0.67 13.99 0.34 14.98 0 16 C-1.98 16 -3.96 16 -6 16 C-4.02 10.72 -2.04 5.44 0 0 Z M2 7 C2 7.99 2 8.98 2 10 C2.66 9.67 3.32 9.34 4 9 C3.34 8.34 2.68 7.68 2 7 Z " fill="#FFFFFF" transform="translate(149,364)"/>
<path d="M0 0 C1.98 0 3.96 0 6 0 C6 3.96 6 7.92 6 12 C8.31 12 10.62 12 13 12 C13 13.32 13 14.64 13 16 C8.71 16 4.42 16 0 16 C0 10.72 0 5.44 0 0 Z " fill="#FFFFFF" transform="translate(332,364)"/>
<path d="M0 0 C1.65 0 3.3 0 5 0 C5.0810206 2.10353495 5.13919907 4.20795952 5.1875 6.3125 C5.22230469 7.48425781 5.25710937 8.65601563 5.29296875 9.86328125 C5 13 5 13 3.75 14.90625 C0.61284491 16.86697193 -2.38542599 16.17776593 -6 16 C-5.67 14.35 -5.34 12.7 -5 11 C-3.68 11 -2.36 11 -1 11 C-0.67 7.37 -0.34 3.74 0 0 Z " fill="#FFFFFF" transform="translate(207,364)"/>
<path d="M0 0 C1.65 0 3.3 0 5 0 C5 5.28 5 10.56 5 16 C3.35 16 1.7 16 0 16 C0 10.72 0 5.44 0 0 Z " fill="#FFFFFF" transform="translate(306,364)"/>
</svg>
